<svg width="1614" height="956" viewBox="0 0 1614 956" fill="none" xmlns="http://www.w3.org/2000/svg">
<path opacity="0.02" d="M214.864 206.567C209.32 138.866 180.113 -83.9159 33.6115 -157.396C27.5984 -160.363 20.1796 -158.255 17.0559 -152.554C13.9322 -146.854 16.1969 -139.826 22.21 -136.781C31.8154 -131.939 40.9522 -126.317 49.5424 -120.07L-184.111 300.974C-194.419 297.772 -204.415 293.79 -214.02 288.949C-220.033 285.981 -227.452 288.09 -230.576 293.79C-233.699 299.49 -231.435 306.518 -225.421 309.564C-78.9198 383.043 130.993 280.125 192.842 246.235C198.387 313.936 227.593 536.718 374.095 610.198C374.173 610.198 374.173 610.276 374.251 610.276C520.675 683.677 730.275 580.993 792.359 547.026C797.903 614.883 827.188 837.352 973.612 910.832C973.69 910.832 973.69 910.91 973.768 910.91C1120.27 984.39 1330.18 881.471 1392.03 847.582C1397.58 915.283 1426.78 1138.06 1573.28 1211.54C1579.3 1214.51 1586.72 1212.4 1589.84 1206.7C1592.96 1201 1590.7 1193.97 1584.69 1190.93C1568.13 1182.65 1553.29 1172.03 1539.86 1159.77L1768.52 747.63C1786.71 751.301 1804.36 756.923 1820.84 765.2C1826.85 768.167 1834.27 766.059 1837.39 760.359C1840.52 754.658 1838.25 747.63 1832.24 744.585C1685.74 671.105 1475.82 774.024 1413.98 807.913C1408.43 740.212 1379.22 517.431 1232.72 443.951C1232.64 443.951 1232.64 443.873 1232.57 443.873C1086.14 370.471 876.542 473.155 814.459 507.123C808.914 439.266 779.63 216.718 633.206 143.317C633.128 143.317 633.128 143.239 633.05 143.239C486.626 69.837 276.714 172.755 214.864 206.567ZM1289.34 519.929L1071.62 912.472C1055.53 911.379 1039.76 908.88 1024.53 904.897L1256.23 487.211C1268.33 496.972 1279.34 507.904 1289.34 519.929ZM1328.78 580.369L1146.27 909.27C1128.47 911.769 1110.51 913.175 1092.86 913.175L1301.99 536.171C1311.99 550.149 1320.89 564.985 1328.78 580.369ZM325.834 543.824L548.163 143.004C563.938 144.8 579.322 148.002 594.16 152.843L360.351 574.356C347.778 565.454 336.298 555.147 325.834 543.824ZM284.601 486.118L474.834 143.16C492.405 141.286 510.054 140.584 527.391 141.286L312.636 528.363C302.25 515.166 292.879 500.954 284.601 486.118ZM612.199 159.637C615.401 161.042 618.603 162.37 621.727 163.932C635.315 170.725 647.731 179.159 659.211 188.685L428.213 605.122C413.454 601.452 399.163 596.454 385.575 589.661C382.451 588.099 379.483 586.303 376.516 584.585L612.199 159.637ZM772.445 530.705C755.968 539.373 731.837 551.242 703.099 563.268L778.146 428.021C784.003 457.382 787.283 482.994 789.079 500.798L772.445 530.705ZM675.298 574.278C655.697 581.618 634.612 588.646 612.668 594.658L754.328 339.315C761.512 359.93 767.291 380.388 771.977 399.988L675.298 574.278ZM587.522 601.062C568.936 605.278 549.959 608.558 530.983 610.51L721.997 266.225C730.978 282.233 738.865 299.022 745.659 315.967L587.522 601.062ZM508.336 612.15C487.798 613.087 467.338 612.306 447.58 609.105L673.658 201.648C687.559 215.391 699.741 230.93 710.596 247.641L508.336 612.15ZM904.656 818.768C894.66 804.868 885.757 790.032 877.87 774.57L1060.37 445.669C1078.18 443.17 1096.14 441.765 1113.87 441.765L904.656 818.768ZM1135.03 442.545C1151.12 443.639 1166.89 446.137 1182.12 450.12L950.418 867.806C938.314 858.123 927.303 847.113 917.229 835.166L1135.03 442.545ZM867.796 753.643C859.674 735.449 852.88 716.864 847.102 698.436L976.813 464.644C996.024 458.787 1016.09 453.634 1036.4 449.729L867.796 753.643ZM820.472 575.761C819.379 567.406 818.52 559.91 817.895 553.429L834.451 523.599C840.464 520.476 847.414 516.884 855.301 513.058L820.472 575.761ZM884.508 499.315C903.875 490.647 926.209 481.589 950.262 473.233L839.605 672.745C833.279 649.163 828.516 626.518 825.079 606.45L884.508 499.315ZM1006.02 899.119C998.913 896.542 991.963 893.731 985.247 890.373C978.531 887.015 972.128 883.111 965.88 879.051L1200.63 455.898C1207.65 458.475 1214.68 461.286 1221.4 464.644C1228.12 468.002 1234.52 471.906 1240.77 476.045L1006.02 899.119ZM228.14 320.886C229.468 320.027 230.717 319.012 231.498 317.606L298.58 196.65C299.36 195.244 299.595 193.683 299.517 192.121C319.665 183.609 342.311 174.942 366.364 167.211L244.227 387.416C237.355 364.224 232.123 341.501 228.14 320.886ZM223.376 293.087C219.003 264.898 217.207 243.112 216.504 232.804C225.875 227.494 245.789 216.64 272.731 204.146L223.376 293.087ZM79.2176 272.316L173.241 102.79C179.566 129.808 183.705 154.639 186.439 174.942C185.814 175.723 185.189 176.347 184.721 177.206L150.282 239.285C149.813 240.144 149.579 241.081 149.267 241.94C130.134 251.233 106.238 262.009 79.2176 272.316ZM190.187 207.66C190.656 212.814 190.968 216.953 191.202 220.154C188.313 221.794 184.564 223.902 179.801 226.401L190.187 207.66ZM135.444 -4.42357L-35.188 303.082C-35.5785 303.785 -35.6566 304.488 -35.8128 305.191C-54.6331 308.548 -73.6877 310.813 -92.5861 311.516L110.298 -54.1649C120.294 -38.8598 129.119 -22.6959 136.85 -6.06337C136.381 -5.51677 135.757 -5.04826 135.444 -4.42357ZM64.8485 -107.576C76.9529 -96.8783 87.8858 -84.9311 97.8036 -71.8906L-114.999 311.75C-131.867 311.281 -148.5 309.485 -164.587 306.05L64.8485 -107.576ZM-11.2136 300.193L146.377 16.1133C154.264 35.8692 160.902 55.8594 166.291 75.3031L51.4166 282.311C31.4249 289.105 10.418 295.196 -11.2136 300.193ZM251.958 411.779C252.505 411.233 253.13 410.686 253.52 409.983L391.197 161.745C391.588 161.042 391.666 160.262 391.9 159.559C411.189 154.171 431.103 149.642 451.25 146.44L274.137 465.815C265.546 448.168 258.206 429.973 251.958 411.779ZM1381.49 748.489L1322.06 855.625C1302.69 864.292 1280.36 873.35 1256.31 881.706L1367.04 682.116C1373.37 705.776 1378.05 728.421 1381.49 748.489ZM1386.17 779.256C1388.75 798.621 1389.92 813.458 1390.47 821.501C1383.21 825.639 1369.62 833.057 1351.35 842.037L1386.17 779.256ZM1503.55 791.593L1428.34 927.152C1422.57 897.87 1419.21 872.257 1417.41 854.375L1434.2 824.078C1450.84 815.41 1474.89 803.541 1503.55 791.593ZM1675.74 744.429L1484.65 1088.79C1475.59 1072.78 1467.78 1056.07 1460.91 1039.05L1619.12 753.799C1637.79 749.661 1656.69 746.381 1675.74 744.429ZM1525.88 1146.03C1514.87 1134.24 1504.95 1121.28 1495.97 1107.45L1698.31 742.789C1715.33 742.008 1732.2 742.555 1748.68 744.507L1525.88 1146.03ZM1593.98 760.202L1452.16 1015.86C1444.98 995.244 1439.2 974.785 1434.51 955.263L1531.43 780.661C1550.95 773.165 1572.03 766.137 1593.98 760.202ZM1359.54 656.503L1229.83 890.373C1210.62 896.23 1190.63 901.305 1170.25 905.288L1338.85 601.374C1346.89 619.568 1353.77 638.153 1359.54 656.503Z" fill="black"/>
</svg>
