<svg width="104" height="72" viewBox="0 0 104 72" fill="none" xmlns="http://www.w3.org/2000/svg">
<path d="M101.125 11.25C101.75 13.625 102.188 16.875 102.438 21C102.812 25.125 103.062 28.6875 103.188 31.6875V36C103.188 47.25 102.5 55.5625 101.125 60.9375C99.875 65.5625 96.8125 68.5625 91.9375 69.9375C89.5625 70.5625 85.0625 71.0625 78.4375 71.4375C71.8125 71.6875 65.75 71.875 60.25 72H52C30.625 72 17.3125 71.3125 12.0625 69.9375C7.1875 68.5625 4.125 65.5625 2.875 60.9375C2.25 58.5625 1.75 55.3125 1.375 51.1875C1.125 46.9375 0.9375 43.375 0.8125 40.5V36C0.8125 24.875 1.5 16.625 2.875 11.25C3.5 9 4.625 7.0625 6.25 5.4375C7.875 3.8125 9.8125 2.6875 12.0625 2.0625C14.4375 1.4375 18.9375 1 25.5625 0.75C32.1875 0.375 38.25 0.125 43.75 0H52C73.375 0 86.6875 0.6875 91.9375 2.0625C94.1875 2.6875 96.125 3.8125 97.75 5.4375C99.375 7.0625 100.5 9 101.125 11.25ZM41.5 51.375L68.3125 36L41.5 20.8125V51.375Z" fill="#FF0000"/>
</svg>
